<?xml version="1.0" standalone="no"?>
<!DOCTYPE svg PUBLIC "-//W3C//DTD SVG 20010904//EN"
 "http://www.w3.org/TR/2001/REC-SVG-20010904/DTD/svg10.dtd">
<svg version="1.0" xmlns="http://www.w3.org/2000/svg"
 width="499.000000pt" height="309.000000pt" viewBox="0 0 499.000000 309.000000"
 preserveAspectRatio="xMidYMid meet">

<g transform="translate(0.000000,309.000000) scale(0.100000,-0.100000)"
fill="#000000" stroke="none">
<path d="M1260 2714 c-182 -33 -340 -167 -393 -334 -32 -98 -40 -166 -28 -222
28 -127 54 -184 120 -267 74 -91 248 -178 340 -169 28 2 36 8 42 29 10 39 -3
51 -65 60 -78 10 -157 50 -220 109 -60 57 -116 152 -116 198 0 17 -5 43 -11
59 -14 36 4 139 38 214 40 89 123 168 220 210 39 17 68 21 153 21 91 0 113 -3
163 -26 32 -14 63 -31 71 -38 7 -7 27 -24 44 -37 77 -58 132 -186 132 -307 0
-144 -70 -268 -197 -351 -49 -31 -53 -36 -53 -73 0 -44 3 -46 51 -26 154 65
268 238 283 431 17 213 -136 437 -344 501 -48 15 -188 26 -230 18z"/>
<path d="M2350 2714 c-190 -34 -327 -146 -399 -326 -27 -68 -25 -89 12 -99 34
-9 48 4 67 62 33 104 125 201 236 250 40 18 68 21 159 21 107 0 112 0 182 -37
81 -41 149 -108 191 -190 25 -47 26 -57 24 -178 -1 -123 -3 -131 -33 -187 -37
-69 -84 -120 -156 -167 -49 -31 -53 -36 -53 -73 0 -22 4 -40 9 -40 19 0 78 30
121 61 112 81 178 188 203 329 3 14 11 39 18 57 10 24 10 37 2 55 -7 13 -21
56 -32 95 -44 164 -173 301 -327 348 -52 16 -182 27 -224 19z"/>
<path d="M3435 2714 c-93 -13 -206 -70 -277 -138 -68 -65 -125 -165 -135 -233
-5 -40 -4 -43 22 -53 40 -15 50 -8 65 45 16 59 75 150 124 193 21 18 66 47 99
63 57 28 70 30 172 31 100 0 115 -2 169 -28 149 -70 244 -216 246 -374 1 -162
-90 -301 -243 -374 -71 -33 -83 -36 -169 -36 -62 0 -107 6 -138 17 -107 40
-209 137 -250 239 -21 51 -49 74 -90 74 -17 0 -19 -5 -13 -32 8 -45 48 -132
84 -185 56 -82 127 -135 233 -177 63 -26 77 -27 186 -24 114 3 118 4 202 45
107 53 186 134 233 238 39 84 49 129 49 215 0 89 -10 133 -50 217 -57 120
-163 213 -296 257 -46 16 -173 27 -223 20z"/>
<path d="M1872 2223 l3 -38 67 -11 c138 -23 245 -104 314 -238 37 -71 63 -96
101 -96 44 0 -40 192 -120 273 -89 91 -209 147 -314 147 l-54 0 3 -37z"/>
<path d="M2957 2253 c-4 -3 -7 -19 -7 -35 0 -32 28 -48 85 -48 31 0 100 -27
163 -64 58 -34 130 -126 152 -194 16 -49 26 -60 68 -68 31 -6 32 -6 32 30 0
20 -4 44 -9 54 -5 9 -19 40 -32 67 -47 101 -186 215 -308 254 -37 12 -134 15
-144 4z"/>
<path d="M1635 2201 c-107 -62 -203 -182 -235 -296 -18 -62 -17 -235 2 -290
41 -123 140 -241 247 -294 32 -17 98 -38 145 -47 81 -16 91 -16 172 0 133 26
222 79 304 183 43 55 90 156 90 196 0 13 -5 28 -12 35 -16 16 -58 15 -58 -2 0
-22 -48 -125 -81 -172 -31 -45 -113 -107 -186 -138 -31 -14 -66 -18 -142 -18
-91 0 -106 3 -166 30 -86 41 -166 117 -207 200 -32 63 -33 69 -33 186 0 115 1
123 30 175 40 72 96 134 150 165 49 29 65 51 65 90 0 34 -22 34 -85 -3z"/>
<path d="M2752 2220 c-13 -6 -44 -24 -70 -42 -137 -93 -217 -245 -217 -413 0
-108 20 -172 83 -275 115 -183 365 -273 566 -204 125 43 242 143 290 249 15
33 31 68 36 77 25 45 2 93 -42 86 -16 -2 -26 -14 -35 -40 -36 -110 -81 -175
-158 -227 -87 -59 -129 -71 -240 -71 -93 0 -110 3 -170 30 -83 37 -172 125
-212 207 -26 55 -27 64 -25 177 3 104 7 126 29 169 29 59 111 148 162 179 47
28 61 46 61 80 0 30 -15 35 -58 18z"/>
<path d="M1933 2134 c-12 -33 39 -151 104 -235 87 -115 296 -208 387 -173 19
7 21 55 4 72 -7 7 -30 12 -52 12 -121 0 -266 104 -334 239 -29 58 -44 76 -70
87 -29 12 -34 11 -39 -2z"/>
<path d="M3750 842 c0 -175 1 -190 20 -210 22 -24 63 -38 79 -27 17 10 13 37
-9 60 -18 19 -20 38 -24 182 -2 89 -7 166 -10 172 -4 6 -18 11 -32 11 l-24 0
0 -188z"/>
<path d="M1080 1003 c-63 -26 -90 -76 -75 -140 8 -37 40 -59 111 -78 65 -17
94 -38 94 -70 0 -33 -20 -45 -73 -45 -34 0 -58 7 -78 21 -32 22 -56 20 -66 -7
-10 -26 38 -60 103 -75 73 -16 128 0 161 50 47 69 18 147 -63 175 -26 9 -58
16 -70 16 -12 0 -32 12 -43 27 -19 23 -20 29 -8 47 18 27 73 32 120 12 25 -10
38 -11 46 -3 17 17 13 41 -11 56 -23 14 -124 24 -148 14z"/>
<path d="M2752 996 c-53 -24 -66 -43 -66 -98 -1 -42 3 -53 27 -73 15 -14 46
-29 70 -36 84 -22 107 -36 107 -67 0 -15 -5 -33 -12 -40 -20 -20 -109 -14
-138 8 -31 24 -39 25 -55 3 -26 -36 10 -67 96 -83 67 -13 120 1 153 41 30 35
33 73 11 125 -15 37 -57 61 -124 71 -70 11 -99 73 -43 94 30 12 108 4 118 -12
8 -14 34 9 34 30 0 40 -117 64 -178 37z"/>
<path d="M2342 958 c-6 -6 -12 -20 -12 -29 0 -9 -9 -19 -20 -22 -12 -3 -20
-14 -20 -27 0 -13 8 -24 20 -27 18 -5 20 -14 20 -90 0 -115 30 -163 104 -163
59 0 77 62 19 68 -46 5 -54 21 -51 103 l3 73 33 7 c19 4 39 12 45 18 16 16 -9
39 -46 43 -24 2 -33 9 -37 28 -6 28 -38 38 -58 18z"/>
<path d="M1372 898 c-8 -8 -12 -68 -12 -204 0 -205 4 -220 48 -203 19 7 22 15
22 68 0 67 9 79 42 57 30 -22 66 -20 106 4 45 28 66 80 59 152 -10 116 -81
169 -163 119 -29 -18 -31 -18 -53 0 -27 22 -33 23 -49 7z m180 -65 c13 -12 18
-31 18 -73 0 -74 -15 -95 -70 -95 -30 0 -46 6 -56 20 -20 27 -18 124 3 147 20
23 80 24 105 1z"/>
<path d="M1778 888 c-69 -40 -91 -140 -47 -218 25 -44 64 -65 125 -65 46 0
106 35 123 73 16 35 12 122 -7 162 -32 65 -124 88 -194 48z m132 -66 c30 -37
27 -106 -5 -137 -68 -68 -157 13 -126 116 7 24 20 43 33 48 33 12 77 0 98 -27z"/>
<path d="M2092 898 c-13 -13 -18 -242 -6 -272 7 -19 35 -21 52 -4 7 7 12 43
12 93 0 97 13 122 70 131 42 7 58 28 38 51 -13 16 -53 10 -78 -12 -13 -11 -19
-10 -39 6 -27 22 -33 23 -49 7z"/>
<path d="M3103 895 c-48 -20 -73 -68 -73 -138 0 -85 30 -128 104 -148 34 -9
48 -8 85 8 58 24 81 57 87 124 12 123 -93 202 -203 154z m91 -45 c14 -5 32
-23 41 -39 43 -85 -17 -173 -98 -142 -33 13 -47 39 -47 91 0 50 14 78 43 90
29 12 32 12 61 0z"/>
<path d="M3397 903 c-4 -3 -7 -59 -7 -123 0 -110 1 -119 25 -144 30 -32 86
-35 130 -6 l30 20 16 -22 c10 -13 23 -19 33 -15 14 5 16 26 16 146 0 119 -2
140 -16 145 -34 13 -44 -12 -44 -108 0 -79 -3 -95 -20 -114 -26 -27 -64 -28
-90 -2 -17 17 -20 33 -20 113 0 91 -8 117 -35 117 -7 0 -15 -3 -18 -7z"/>
</g>
</svg>
