<?xml version="1.0" encoding="UTF-8"?>
<!DOCTYPE svg PUBLIC "-//W3C//DTD SVG 1.1//EN" "http://www.w3.org/Graphics/SVG/1.1/DTD/svg11.dtd">
<svg xmlns="http://www.w3.org/2000/svg" version="1.1" width="500px" height="500px" style="shape-rendering:geometricPrecision; text-rendering:geometricPrecision; image-rendering:optimizeQuality; fill-rule:evenodd; clip-rule:evenodd" xmlns:xlink="http://www.w3.org/1999/xlink">
<g><path style="opacity:0.956" fill="#0596e5" d="M 161.5,202.5 C 160.848,203.449 160.514,204.615 160.5,206C 160.964,211.008 161.63,215.841 162.5,220.5C 157.813,257.512 137.813,281.846 102.5,293.5C 101.883,293.389 101.383,293.056 101,292.5C 100.333,286.833 100.333,281.167 101,275.5C 101.717,274.956 102.217,274.289 102.5,273.5C 124.123,264.533 137.456,248.533 142.5,225.5C 142.833,224.833 143.167,224.167 143.5,223.5C 144.165,220.686 144.498,217.686 144.5,214.5C 144.483,211.087 143.816,208.087 142.5,205.5C 135.334,172.219 114.667,154.219 80.5,151.5C 46.9681,154.199 26.1348,171.866 18,204.5C 15.2636,232.857 25.7636,254.69 49.5,270C 60.1297,275.657 71.463,278.491 83.5,278.5C 84.2057,284.675 84.2057,290.675 83.5,296.5C 39.6934,295.005 11.6934,273.338 -0.5,231.5C -0.5,220.5 -0.5,209.5 -0.5,198.5C 7.49173,167.335 26.8251,146.502 57.5,136C 98.0335,127.197 129.534,140.031 152,174.5C 156.668,183.337 159.835,192.67 161.5,202.5 Z M 142.5,205.5 C 111.025,215.812 91.5247,237.145 84,269.5C 83.502,272.482 83.3354,275.482 83.5,278.5C 71.463,278.491 60.1297,275.657 49.5,270C 25.7636,254.69 15.2636,232.857 18,204.5C 26.1348,171.866 46.9681,154.199 80.5,151.5C 114.667,154.219 135.334,172.219 142.5,205.5 Z M 142.5,225.5 C 137.456,248.533 124.123,264.533 102.5,273.5C 107.471,250.529 120.804,234.529 142.5,225.5 Z"/></g>
<g><path style="opacity:0.964" fill="#37444e" d="M 330.5,202.5 C 329.861,203.097 329.528,203.93 329.5,205C 330.043,210.328 330.71,215.495 331.5,220.5C 326.751,257.911 306.418,282.244 270.5,293.5C 269.193,287.266 269.193,280.932 270.5,274.5C 271.167,274.5 271.5,274.167 271.5,273.5C 287.642,267.295 299.475,256.295 307,240.5C 309.093,235.655 310.593,230.655 311.5,225.5C 311.783,224.711 312.283,224.044 313,223.5C 313.167,220.5 313.333,217.5 313.5,214.5C 313.483,211.087 312.816,208.087 311.5,205.5C 307.292,181.563 293.958,165.063 271.5,156C 239.162,146.554 213.662,155.721 195,183.5C 191.066,190.364 188.566,197.697 187.5,205.5C 181.033,205.139 174.699,204.139 168.5,202.5C 174.588,171.914 191.922,150.414 220.5,138C 262.208,125.678 295.375,137.178 320,172.5C 325.496,181.82 328.996,191.82 330.5,202.5 Z"/></g>
<g><path style="opacity:0.942" fill="#e54b3b" d="M 413.5,296.5 C 407.588,295.315 401.588,293.982 395.5,292.5C 370.352,284.861 352.518,268.861 342,244.5C 339.335,236.673 337.502,228.673 336.5,220.5C 343.583,220.937 350.25,222.604 356.5,225.5C 356.5,226.167 356.833,226.5 357.5,226.5C 361.774,248.411 374.107,263.745 394.5,272.5C 397.06,275.537 400.393,277.371 404.5,278C 407.817,278.498 411.15,278.665 414.5,278.5C 450.513,277.425 472.68,259.425 481,224.5C 483.509,199.027 474.676,178.527 454.5,163C 424.014,145.623 396.181,149.123 371,173.5C 363.437,183.294 358.603,194.294 356.5,206.5C 350.139,205.161 343.805,203.828 337.5,202.5C 344.514,169.649 363.847,147.483 395.5,136C 439.879,126.78 472.713,141.946 494,181.5C 495.333,185.5 496.667,189.5 498,193.5C 506.101,232.418 493.934,262.918 461.5,285C 446.565,293.221 430.565,297.054 413.5,296.5 Z M 357.5,226.5 C 372.761,233.26 383.928,244.26 391,259.5C 392.684,263.716 393.851,268.049 394.5,272.5C 374.107,263.745 361.774,248.411 357.5,226.5 Z"/></g>
<g><path style="opacity:0.971" fill="#f2d45b" d="M 161.5,202.5 C 163.833,202.5 166.167,202.5 168.5,202.5C 174.699,204.139 181.033,205.139 187.5,205.5C 212.651,213.141 230.484,229.141 241,253.5C 244.048,261.574 245.881,269.907 246.5,278.5C 239.438,278.091 232.772,276.425 226.5,273.5C 223.623,256.569 215.289,243.069 201.5,233C 197.252,229.709 192.585,227.209 187.5,225.5C 181.377,222.355 174.711,220.688 167.5,220.5C 165.833,220.5 164.167,220.5 162.5,220.5C 161.63,215.841 160.964,211.008 160.5,206C 160.514,204.615 160.848,203.449 161.5,202.5 Z"/></g>
<g><path style="opacity:0.958" fill="#27ac5e" d="M 330.5,202.5 C 332.833,202.5 335.167,202.5 337.5,202.5C 343.805,203.828 350.139,205.161 356.5,206.5C 385.965,215.802 404.798,235.468 413,265.5C 413.923,269.79 414.423,274.123 414.5,278.5C 411.15,278.665 407.817,278.498 404.5,278C 400.393,277.371 397.06,275.537 394.5,272.5C 393.851,268.049 392.684,263.716 391,259.5C 383.928,244.26 372.761,233.26 357.5,226.5C 356.833,226.5 356.5,226.167 356.5,225.5C 350.25,222.604 343.583,220.937 336.5,220.5C 334.833,220.5 333.167,220.5 331.5,220.5C 330.71,215.495 330.043,210.328 329.5,205C 329.528,203.93 329.861,203.097 330.5,202.5 Z"/></g>
<g><path style="opacity:0.967" fill="#f2d55a" d="M 142.5,205.5 C 143.455,211.409 143.789,217.409 143.5,223.5C 143.167,224.167 142.833,224.833 142.5,225.5C 120.804,234.529 107.471,250.529 102.5,273.5C 102.217,274.289 101.717,274.956 101,275.5C 100.333,281.167 100.333,286.833 101,292.5C 101.383,293.056 101.883,293.389 102.5,293.5C 109.836,326.997 130.67,344.997 165,347.5C 192.184,345.263 211.518,331.93 223,307.5C 224.893,302.993 226.059,298.327 226.5,293.5C 232.981,294.382 239.314,295.382 245.5,296.5C 237.844,333.656 215.511,356.489 178.5,365C 141.547,369.105 113.047,355.605 93,324.5C 88.3322,315.663 85.1655,306.33 83.5,296.5C 84.2057,290.675 84.2057,284.675 83.5,278.5C 83.3354,275.482 83.502,272.482 84,269.5C 91.5247,237.145 111.025,215.812 142.5,205.5 Z"/></g>
<g><path style="opacity:0.953" fill="#24ad5e" d="M 311.5,205.5 C 312.816,208.087 313.483,211.087 313.5,214.5C 313.333,217.5 313.167,220.5 313,223.5C 312.283,224.044 311.783,224.711 311.5,225.5C 294.729,231.767 282.562,243.1 275,259.5C 273.107,264.007 271.941,268.673 271.5,273.5C 270.833,273.5 270.5,273.833 270.5,274.5C 269.193,280.932 269.193,287.266 270.5,293.5C 277.846,327.007 298.679,345.007 333,347.5C 357.36,346.168 375.694,335.168 388,314.5C 391.601,307.53 394.101,300.197 395.5,292.5C 401.588,293.982 407.588,295.315 413.5,296.5C 410.823,317.021 401.489,333.855 385.5,347C 360.016,366.735 332.016,371.068 301.5,360C 274.731,347.271 258.398,326.437 252.5,297.5C 252.823,290.978 252.49,284.645 251.5,278.5C 254.982,246.706 270.982,223.54 299.5,209C 303.547,207.928 307.547,206.761 311.5,205.5 Z"/></g>
<g><path style="opacity:0.914" fill="#8ab899" d="M 142.5,205.5 C 143.816,208.087 144.483,211.087 144.5,214.5C 144.498,217.686 144.165,220.686 143.5,223.5C 143.789,217.409 143.455,211.409 142.5,205.5 Z"/></g>
<g><path style="opacity:0.966" fill="#38454e" d="M 167.5,220.5 C 174.711,220.688 181.377,222.355 187.5,225.5C 192.467,248.124 205.467,264.124 226.5,273.5C 232.772,276.425 239.438,278.091 246.5,278.5C 248.167,278.5 249.833,278.5 251.5,278.5C 252.49,284.645 252.823,290.978 252.5,297.5C 250.283,296.631 247.95,296.298 245.5,296.5C 239.314,295.382 232.981,294.382 226.5,293.5C 191.888,281.527 172.221,257.194 167.5,220.5 Z"/></g>
</svg>
